<?xml version="1.0" standalone="no"?>
<!DOCTYPE svg PUBLIC "-//W3C//DTD SVG 20010904//EN"
 "http://www.w3.org/TR/2001/REC-SVG-20010904/DTD/svg10.dtd">
<svg version="1.0" xmlns="http://www.w3.org/2000/svg"
 width="300.000000pt" height="300.000000pt" viewBox="0 0 300.000000 300.000000"
 preserveAspectRatio="xMidYMid meet">
<metadata>
Created by potrace 1.11, written by Peter Selinger 2001-2013
</metadata>
<g transform="translate(0.000000,300.000000) scale(0.100000,-0.100000)"
fill="#000000" stroke="none">
<path d="M530 2992 c0 -17 79 -248 123 -362 75 -193 228 -498 321 -640 74
-113 176 -278 176 -285 0 -9 -138 -234 -158 -257 -7 -9 -12 -20 -9 -25 3 -4
10 -57 16 -118 26 -242 74 -470 147 -700 37 -117 38 -118 50 -89 7 16 36 82
63 146 65 151 237 478 253 478 19 0 216 -383 285 -554 40 -100 43 -113 32
-140 -33 -82 -142 -322 -174 -380 l-35 -66 480 0 c438 0 480 1 480 16 0 31
-51 263 -80 369 l-30 105 24 84 c49 168 100 451 133 731 25 216 25 817 0 1035
-27 238 -73 506 -105 625 l-8 30 -325 3 -324 2 -29 -82 c-63 -180 -294 -638
-321 -638 -25 0 -222 383 -301 587 -24 61 -44 116 -44 122 0 8 -98 11 -320 11
-176 0 -320 -4 -320 -8z m1526 -1269 c-4 -142 -11 -261 -15 -266 -4 -4 -44 51
-88 123 l-81 130 85 135 c47 74 90 135 96 135 7 0 8 -80 3 -257z"/>
<path d="M552 453 c-21 -39 -102 -390 -102 -440 0 -10 36 -13 144 -13 l145 0
-50 121 c-28 67 -68 173 -89 236 -31 93 -40 111 -48 96z"/>
</g>
</svg>
